<svg xmlns="http://www.w3.org/2000/svg" width="153" height="80" viewBox="0 0 153 80">
  <g fill="none" fill-rule="evenodd" transform="translate(24 12)">
    <path fill="#FDE3E1" d="M100.0067 36.5C100.0067 37.881 98.8877 39 97.5067 39 96.1257 39 95.0067 37.881 95.0067 36.5 95.0067 35.119 96.1257 34 97.5067 34 98.8877 34 100.0067 35.119 100.0067 36.5M5.0067 37.5C5.0067 38.881 3.8877 40 2.5067 40 1.1257 40 .0067 38.881.0067 37.5.0067 36.119 1.1257 35 2.5067 35 3.8877 35 5.0067 36.119 5.0067 37.5M96.5206 24.709C94.3596 25.622 92.6286 27.353 91.7156 29.514 91.4416 30.162 90.5716 30.162 90.2976 29.514 89.3846 27.353 87.6546 25.622 85.4926 24.709 84.8446 24.436 84.8446 23.564 85.4926 23.291 87.6546 22.378 89.3846 20.647 90.2976 18.486 90.5716 17.838 91.4416 17.838 91.7156 18.486 92.6286 20.647 94.3596 22.378 96.5206 23.291 97.1686 23.564 97.1686 24.436 96.5206 24.709M16.5206 26.709C14.3596 27.622 12.6286 29.353 11.7156 31.514 11.4416 32.162 10.5716 32.162 10.2976 31.514 9.3846 29.353 7.6546 27.622 5.4926 26.709 4.8446 26.436 4.8446 25.564 5.4926 25.291 7.6546 24.378 9.3846 22.647 10.2976 20.486 10.5716 19.838 11.4416 19.838 11.7156 20.486 12.6286 22.647 14.3596 24.378 16.5206 25.291 17.1686 25.564 17.1686 26.436 16.5206 26.709"/>
    <path fill="#FFF" d="M30.0067,0 L39.0067,0 C40.6567,0 42.0067,1.35 42.0067,3 L42.0067,20.921 L40.0067,26.755 L42.0067,30.547 L42.0067,52 C42.0067,53.65 40.6567,55 39.0067,55 L30.0067,55 C28.3567,55 27.0067,53.65 27.0067,52 L27.0067,3 C27.0067,1.35 28.3567,0 30.0067,0"/>
    <polygon fill="#D8EDFF" points="42.007 31 42.007 20.921 27.008 44.39"/>
    <path fill="#6C48EF" d="M32.2457,56.125 L25.8817,49.761 C24.7147,48.595 24.7147,46.686 25.8817,45.519 L60.5297,10.87 C61.6967,9.703 63.6057,9.703 64.7727,10.87 L71.1367,17.234 C72.3037,18.4 72.3037,20.31 71.1367,21.477 L58.6027,34.011 L52.1307,37.482 L52.1387,40.475 L36.4887,56.125 C35.3217,57.292 33.4127,57.292 32.2457,56.125"/>
    <polygon fill="#5834DB" points="51.81 40.804 58.603 34.011 31.402 40"/>
    <path fill="#1791FF" d="M27.0067,52 L27.0067,43 C27.0067,41.35 28.3567,40 30.0067,40 L79.0067,40 C80.6567,40 82.0067,41.35 82.0067,43 L82.0067,52 C82.0067,53.65 80.6567,55 79.0067,55 L30.0067,55 C28.3567,55 27.0067,53.65 27.0067,52"/>
    <path fill="#FFF" d="M37.5067,47.5 C37.5067,49.157 36.1637,50.5 34.5067,50.5 C32.8497,50.5 31.5067,49.157 31.5067,47.5 C31.5067,45.843 32.8497,44.5 34.5067,44.5 C36.1637,44.5 37.5067,45.843 37.5067,47.5"/>
  </g>
</svg>
