<svg xmlns="http://www.w3.org/2000/svg" width="153" height="80" viewBox="0 0 153 80">
  <g fill="none" fill-rule="evenodd" transform="translate(47 9)">
    <path fill="#6C48EF" d="M27.5499,1.4932 C25.4349,-0.2808 22.2809,-0.0058 20.5059,2.1102 L18.5149,4.4822 L18.6159,8.7462 L15.2029,8.4302 L10.0159,14.6112 L38.2179,18.2502 L47.5189,18.2502 L27.5499,1.4932 Z"/>
    <polygon fill="#5834DB" points="15.838 7.671 18.514 4.482 34.169 14.343 26.142 12.421"/>
    <path fill="#1791FF" d="M15.5682,7.5801 C12.9732,6.6361 10.1042,7.9741 9.1602,10.5681 L7.8792,14.0881 L9.9582,16.6171 L5.4002,20.8981 L52.1602,20.8981 L15.5682,7.5801 Z"/>
    <polygon fill="#1F77FF" points="6.455 18 7.879 14.088 32.197 18"/>
    <path fill="#FFF" d="M0.0067,56 L0.0067,23 C0.0067,20.238 2.2457,18 5.0067,18 L55.0067,18 C57.7677,18 60.0067,20.238 60.0067,23 L60.0067,56 C60.0067,58.762 57.7677,61 55.0067,61 L5.0067,61 C2.2457,61 0.0067,58.762 0.0067,56"/>
    <path fill="#9ED1FF" d="M18.9676 42.0488L22.3986 32.8588 25.8306 42.0488 18.9676 42.0488zM24.3426 29.4908C24.1236 28.9038 23.5636 28.5158 22.9376 28.5158L21.8586 28.5158C21.2326 28.5158 20.6716 28.9038 20.4526 29.4908L13.4016 48.3818C13.1126 49.1578 13.5066 50.0218 14.2816 50.3118 15.0596 50.6018 15.9226 50.2068 16.2126 49.4308L17.8476 45.0488 26.9516 45.0488 28.5886 49.4308C28.8136 50.0338 29.3856 50.4058 29.9936 50.4058 30.1686 50.4058 30.3456 50.3758 30.5186 50.3118 31.2946 50.0218 31.6886 49.1568 31.3996 48.3818L24.3426 29.4908zM40.7479 47.1689C38.3949 47.1689 36.4809 45.2549 36.4809 42.9019 36.4809 40.5499 38.3949 38.6359 40.7479 38.6359 43.1009 38.6359 45.0149 40.5499 45.0149 42.9019 45.0149 45.2549 43.1009 47.1689 40.7479 47.1689M46.5149 35.3279C45.6859 35.3279 45.0149 35.9999 45.0149 36.8279L45.0149 37.0329C43.8139 36.1579 42.3429 35.6359 40.7479 35.6359 36.7409 35.6359 33.4809 38.8959 33.4809 42.9019 33.4809 46.9089 36.7409 50.1689 40.7479 50.1689 42.3429 50.1689 43.8139 49.6469 45.0149 48.7719L45.0149 48.9779C45.0149 49.8059 45.6859 50.4779 46.5149 50.4779 47.3429 50.4779 48.0149 49.8059 48.0149 48.9779L48.0149 36.8279C48.0149 35.9999 47.3429 35.3279 46.5149 35.3279"/>
  </g>
</svg>
